<svg version="1.1" id="Layer_1" xmlns="http://www.w3.org/2000/svg" xmlns:xlink="http://www.w3.org/1999/xlink" x="0px" y="0px"
	 width="100%" viewBox="0 0 1200 1200" enable-background="new 0 0 1200 1200" xml:space="preserve">
<path fill="#47704C" opacity="1.000000" stroke="none" 
	d="
M1201.000000,5.000000 
	C1201.000000,402.032715 1201.000000,799.065430 1200.531372,1196.549072 
	C806.090332,1197.000000 412.117950,1197.000000 18.145571,1196.999878 
	C5.001275,1196.999878 5.000185,1196.999023 5.000177,1183.992920 
	C4.999963,795.352722 4.999992,406.712494 5.000161,18.072289 
	C5.000166,5.001159 5.001172,5.000165 18.080524,5.000159 
	C412.387024,4.999977 806.693481,5.000005 1201.000000,5.000000 
M702.797119,895.248657 
	C702.797119,895.248657 702.720886,895.295288 702.578369,894.596008 
	C699.792725,889.662048 696.926270,889.421631 693.745911,893.890076 
	C692.783936,895.241638 692.236938,897.363647 690.966187,897.925415 
	C687.953308,899.257202 684.625427,900.476990 681.415222,900.502136 
	C679.867737,900.514221 676.999146,897.752502 676.966980,896.200317 
	C676.838196,889.996094 676.575012,883.478638 678.277344,877.635193 
	C680.256897,870.839966 687.444519,870.527283 691.601318,876.318909 
	C692.274109,877.256348 693.085449,878.094360 693.934875,879.628662 
	C693.985657,880.064636 694.036438,880.500549 694.015381,881.513977 
	C695.044617,886.592712 699.174683,884.996399 702.029236,884.644714 
	C703.751770,884.432495 706.437805,882.142334 706.561707,880.613220 
	C707.028931,874.850342 707.177063,868.941467 706.400085,863.229309 
	C705.490417,856.542419 701.482361,854.421509 694.946655,855.477966 
	C692.256714,855.912781 689.366089,855.792908 686.663208,855.344116 
	C673.620605,853.178284 661.408630,864.862732 663.046326,878.984802 
	C663.061584,884.303467 663.076843,889.622192 662.902161,895.598206 
	C662.792358,900.233521 662.820801,904.805420 668.648010,907.307617 
	C670.111694,908.833435 671.575317,910.359192 673.213867,912.587341 
	C675.426025,914.317627 677.428345,917.114136 679.885803,917.597839 
	C691.994995,919.980774 700.172363,915.480286 705.372070,904.461182 
	C707.233154,900.517151 706.750549,897.387024 702.797119,895.248657 
M720.923828,895.717041 
	C720.979797,896.458435 721.035706,897.199829 720.905334,898.578064 
	C720.499756,902.894836 721.610657,906.369873 726.671021,908.330383 
	C734.754883,917.625061 754.773315,916.858643 759.607483,901.202698 
	C763.882874,887.356567 764.253113,873.591736 752.825378,861.387634 
	C751.601929,859.738892 750.714783,857.220520 749.095825,856.594421 
	C742.683594,854.114624 736.149048,853.922607 730.218567,858.158691 
	C724.117371,862.516602 720.062927,868.017395 721.012695,876.713623 
	C720.953064,877.149353 720.893433,877.585144 720.500610,878.369019 
	C720.364502,879.264954 720.228455,880.160950 720.044922,881.962463 
	C720.060425,885.289062 720.075928,888.615662 719.959717,892.411865 
	C720.250916,893.267578 720.542114,894.123352 720.923828,895.717041 
M313.038147,387.498566 
	C322.317230,395.581116 333.185608,400.652161 345.207001,402.372986 
	C354.704224,403.732513 364.427490,403.500671 374.047852,404.022461 
	C376.078735,404.132599 378.098572,404.446625 380.828003,404.743286 
	C348.382996,475.952271 348.855560,546.580505 380.550507,617.384583 
	C372.397156,617.956909 365.123749,618.297180 357.886292,619.005005 
	C327.223602,622.003662 300.878265,648.708496 298.077820,679.497742 
	C294.347687,720.508667 325.769287,754.996521 366.902679,754.998413 
	C526.053284,755.005859 685.203918,755.008911 844.354492,754.991699 
	C863.405090,754.989685 880.072388,748.361206 893.366028,734.920105 
	C909.891479,718.211243 915.623718,697.761963 912.107605,674.455139 
	C908.511963,650.621033 887.318176,626.883179 863.914551,620.948181 
	C852.318970,618.007629 840.562378,617.793579 828.733032,617.966980 
	C826.503052,617.999756 824.267761,617.671143 820.922241,617.428589 
	C853.530334,546.240295 853.295105,475.598236 821.262146,404.642273 
	C828.560425,404.058929 834.953491,403.463715 841.358337,403.050140 
	C873.914856,400.947968 901.658691,373.500885 903.947266,341.076111 
	C906.797241,300.697113 875.435974,267.002747 834.967590,267.001038 
	C676.650269,266.994385 518.332886,267.005585 360.015533,266.990265 
	C337.056549,266.988037 317.933655,275.087708 303.279205,293.154053 
	C290.616119,308.765350 286.922729,326.684204 289.609680,346.112213 
	C291.893738,362.627167 300.014893,376.102356 313.038147,387.498566 
M575.697571,912.314026 
	C578.999512,912.535339 582.301453,912.756592 585.603394,912.977844 
	C585.801270,912.481689 585.999207,911.985474 586.197083,911.489319 
	C581.976257,905.054871 577.755371,898.620483 573.238770,891.735229 
	C574.901245,890.931091 576.177856,890.292725 577.471680,889.691162 
	C584.098633,886.610352 587.997742,879.329102 586.646973,872.537170 
	C585.037415,864.444153 579.553040,859.376587 571.666870,859.080933 
	C566.016357,858.869080 560.351013,859.082336 554.693359,859.017273 
	C551.661194,858.982422 550.020142,860.126160 550.029785,863.379333 
	C550.074707,878.523926 550.066467,893.668701 550.042969,908.813416 
	C550.038330,911.774109 551.470581,912.927734 554.355347,912.970337 
	C557.454712,913.016052 559.020752,911.841370 558.976868,908.609741 
	C558.920471,904.450439 558.874023,900.280579 559.128174,896.133911 
	C559.204529,894.887573 560.297424,893.703491 560.924561,892.490906 
	C561.909424,893.241150 563.169250,893.802917 563.833740,894.772644 
	C567.678894,900.384521 571.383545,906.092712 575.697571,912.314026 
M434.001007,902.450439 
	C434.034760,904.782166 433.805817,907.160583 434.208557,909.426697 
	C434.423157,910.634399 435.720764,912.593140 436.545380,912.601257 
	C443.829376,912.672791 451.224579,913.081665 458.369934,911.981506 
	C464.282745,911.071045 468.721710,906.380371 469.737213,900.565491 
	C471.088776,892.826050 472.243652,884.645569 471.166931,876.979919 
	C469.353882,864.072388 462.141846,859.007202 449.100372,859.001526 
	C446.101349,859.000183 443.088623,859.190186 440.106476,858.967407 
	C435.627625,858.632812 433.851257,860.344055 433.935486,864.976807 
	C434.156555,877.135437 434.004364,889.300903 434.001007,902.450439 
M403.763916,911.495605 
	C406.544739,907.667419 410.282227,904.203186 411.906189,899.934875 
	C415.228882,891.201721 414.860138,882.006531 412.095581,873.052856 
	C409.381805,864.263794 403.078979,859.262695 394.811035,859.020264 
	C384.358856,858.713806 378.164764,862.492188 374.736786,871.815308 
	C371.377014,880.952942 371.111847,890.293518 374.070160,899.633423 
	C378.257202,912.852966 389.560791,917.481506 403.763916,911.495605 
M840.469849,867.263916 
	C837.884399,878.006226 841.361572,884.238953 851.823975,888.122925 
	C855.694702,889.559814 859.689026,891.036743 863.036072,893.350342 
	C864.651245,894.466797 865.953125,897.830872 865.481812,899.692261 
	C864.957825,901.761475 862.551147,904.133667 860.439758,904.869812 
	C854.920593,906.793823 851.422729,904.404053 847.333984,898.017517 
	C846.370178,896.512146 843.738159,895.501526 841.829651,895.429688 
	C840.951355,895.396667 839.438416,898.084595 839.152100,899.704529 
	C838.695190,902.289551 838.958191,905.014954 839.031799,907.677795 
	C839.165161,912.500061 840.946899,913.766785 845.691345,912.775513 
	C847.347473,912.429565 849.119873,912.274841 850.793457,912.455566 
	C854.047241,912.807068 857.257874,913.809265 860.505981,913.910278 
	C867.089111,914.114746 871.459045,910.550598 874.035522,904.728882 
	C876.522827,899.108398 875.370056,892.426758 870.674133,888.349609 
	C867.729492,885.793152 864.098633,883.973755 860.631531,882.088684 
	C857.729980,880.511108 854.366699,879.691345 851.663513,877.862488 
	C848.062439,875.426147 848.349792,870.847351 851.809265,868.801453 
	C856.812134,865.842834 863.233398,867.858826 864.733398,873.401306 
	C865.738464,877.114929 868.145752,877.535095 870.665100,876.684204 
	C872.104370,876.198059 873.479248,873.901672 873.833557,872.201599 
	C874.366028,869.646851 874.047302,866.898132 873.965698,864.235718 
	C873.809814,859.149048 871.007996,857.658447 866.396667,859.893372 
	C865.161133,860.492188 863.299744,860.818604 862.110718,860.331055 
	C853.491699,856.796448 845.947754,858.919434 840.469849,867.263916 
M355.001312,873.362732 
	C355.000549,870.862854 355.282776,868.320496 354.915894,865.875549 
	C354.579102,863.631287 353.987610,860.007812 352.718353,859.627319 
	C350.354919,858.918823 347.417450,860.125366 344.718903,860.534790 
	C331.883911,856.544983 323.441772,858.733459 318.550232,869.126587 
	C313.242706,880.403625 313.312195,892.093811 318.337280,903.454285 
	C322.026794,911.795227 329.208496,915.033508 339.486847,913.918762 
	C345.882935,913.225098 352.968597,906.650574 354.407745,899.572632 
	C354.674347,898.261414 353.663300,896.028503 352.529327,895.217834 
	C349.065216,892.741333 347.412689,894.999634 345.870331,898.115173 
	C342.841614,904.233093 339.815002,905.848450 334.100220,905.088257 
	C328.576965,904.353516 326.120758,900.446472 325.228790,895.637268 
	C324.418060,891.266296 323.965485,886.710754 324.250244,882.294250 
	C324.456238,879.099426 325.789459,875.833252 327.230072,872.898376 
	C329.047882,869.195007 332.436249,867.127930 336.607635,867.601013 
	C340.875214,868.084961 343.833130,870.457886 345.174957,874.879089 
	C345.824249,877.018372 347.037903,879.918762 348.753387,880.618713 
	C353.070984,882.380798 354.799652,880.355896 355.001312,873.362732 
M503.536255,912.999878 
	C509.865509,912.986328 516.194824,912.949219 522.523987,912.970398 
	C525.275818,912.979553 526.946655,912.078430 526.933228,908.949158 
	C526.919556,905.761963 525.106934,905.014038 522.422729,905.028259 
	C518.425537,905.049377 514.427979,905.006165 510.430603,905.001160 
	C500.583221,904.988770 500.571625,904.839172 500.960907,894.861267 
	C501.106995,891.117126 502.736450,889.886719 506.209930,889.990173 
	C509.869659,890.099121 513.601440,890.340820 517.168762,889.738098 
	C518.593079,889.497375 520.405823,887.261414 520.631531,885.726318 
	C520.782715,884.698547 518.606567,882.520142 517.197021,882.240173 
	C514.308105,881.666565 511.234375,882.021057 508.236664,881.997742 
	C501.150085,881.942566 501.018280,881.810730 501.007080,874.666870 
	C501.005768,873.834106 501.082153,872.995972 501.013397,872.169434 
	C500.683807,868.207825 502.660736,866.869995 506.405304,866.977539 
	C511.564056,867.125732 516.730896,866.981384 521.894287,866.981323 
	C524.591309,866.981323 526.901733,866.706848 526.935913,863.080078 
	C526.969482,859.537598 524.855286,859.008301 522.053650,859.015869 
	C514.058777,859.037598 506.058441,859.188110 498.070862,858.942444 
	C493.554535,858.803589 491.858215,860.417358 491.936279,865.007385 
	C492.148712,877.495911 491.980957,889.990601 492.007141,902.482727 
	C492.031097,913.901611 491.136200,912.939026 503.536255,912.999878 
M782.000732,869.552002 
	C782.009399,882.382812 781.928833,895.215027 782.140442,908.042480 
	C782.166687,909.634521 783.409668,912.052429 784.691956,912.558044 
	C786.202087,913.153381 789.223694,912.703491 790.042053,911.579712 
	C791.138611,910.073730 790.946045,907.488647 790.967712,905.363403 
	C791.096619,892.716248 791.063721,892.715942 803.708557,891.959656 
	C812.692749,891.422302 818.970581,884.565735 818.874451,875.395752 
	C818.777039,866.103882 812.578369,859.446777 803.499329,859.061340 
	C799.506897,858.891907 795.502197,859.001953 791.503052,859.003052 
	C782.025024,859.005615 782.025024,859.009888 782.000732,869.552002 
z"/>
<path fill="#47704C" opacity="1.000000" stroke="none" 
	d="
M1201.000000,4.500000 
	C806.693481,5.000005 412.387024,4.999977 18.080524,5.000159 
	C5.001172,5.000165 5.000166,5.001159 5.000161,18.072289 
	C4.999992,406.712494 4.999963,795.352722 5.000177,1183.992920 
	C5.000185,1196.999023 5.001275,1196.999878 18.145571,1196.999878 
	C412.117950,1197.000000 806.090332,1197.000000 1200.531372,1197.000000 
	C1201.000000,1198.333130 1201.000000,1199.666260 1201.000000,1200.999512 
	C801.055542,1200.999756 401.111084,1200.999756 1.083318,1200.999756 
	C1.083318,801.110901 1.083318,401.221832 1.083318,1.166359 
	C400.999939,1.166359 800.999939,1.166359 1201.000000,1.166359 
	C1201.000000,2.000753 1201.000000,3.000377 1201.000000,4.500000 
z"/>
<path fill="#122D42" opacity="1.000000" stroke="none" 
	d="
M312.780884,387.251648 
	C300.014893,376.102356 291.893738,362.627167 289.609680,346.112213 
	C286.922729,326.684204 290.616119,308.765350 303.279205,293.154053 
	C317.933655,275.087708 337.056549,266.988037 360.015533,266.990265 
	C518.332886,267.005585 676.650269,266.994385 834.967590,267.001038 
	C875.435974,267.002747 906.797241,300.697113 903.947266,341.076111 
	C901.658691,373.500885 873.914856,400.947968 841.358337,403.050140 
	C834.953491,403.463715 828.560425,404.058929 821.262146,404.642273 
	C853.295105,475.598236 853.530334,546.240295 820.922241,617.428589 
	C824.267761,617.671143 826.503052,617.999756 828.733032,617.966980 
	C840.562378,617.793579 852.318970,618.007629 863.914551,620.948181 
	C887.318176,626.883179 908.511963,650.621033 912.107605,674.455139 
	C915.623718,697.761963 909.891479,718.211243 893.366028,734.920105 
	C880.072388,748.361206 863.405090,754.989685 844.354492,754.991699 
	C685.203918,755.008911 526.053284,755.005859 366.902679,754.998413 
	C325.769287,754.996521 294.347687,720.508667 298.077820,679.497742 
	C300.878265,648.708496 327.223602,622.003662 357.886292,619.005005 
	C365.123749,618.297180 372.397156,617.956909 380.550507,617.384583 
	C348.855560,546.580505 348.382996,475.952271 380.828003,404.743286 
	C378.098572,404.446625 376.078735,404.132599 374.047852,404.022461 
	C364.427490,403.500671 354.704224,403.732513 345.207001,402.372986 
	C333.185608,400.652161 322.317230,395.581116 312.780884,387.251648 
M584.837158,636.881226 
	C584.186096,636.743164 583.540161,636.571228 582.883240,636.471863 
	C550.042175,631.507202 523.055481,616.126953 502.041840,590.493835 
	C484.849213,569.521790 475.793549,545.201843 474.068451,518.231384 
	C472.939758,500.584625 475.559082,483.384827 481.929016,466.835388 
	C489.586914,446.939850 501.005768,429.652863 517.492981,415.909729 
	C521.846375,412.280914 526.156982,408.600800 531.045105,404.473145 
	C529.233643,404.253510 528.268127,404.034485 527.302551,404.034088 
	C487.472748,404.018097 447.642853,404.062012 407.813354,403.956268 
	C404.117584,403.946442 402.584320,405.866211 401.085449,408.713104 
	C390.460724,428.893585 383.352264,450.250031 379.296783,472.665833 
	C374.994659,496.444885 374.761780,520.341858 378.368042,544.142456 
	C383.708649,579.388977 396.640869,611.722778 417.469391,640.787537 
	C439.904083,672.093628 468.431305,696.290588 502.918060,713.314148 
	C534.804199,729.054016 568.911804,735.734253 604.233032,735.910400 
	C666.226074,736.219666 728.221802,736.000671 790.216370,735.986145 
	C791.958313,735.985718 793.700317,735.794556 796.520508,735.629089 
	C784.461060,720.853516 776.859924,705.586914 776.826355,686.896606 
	C776.792786,668.222107 783.969543,652.841797 796.402161,638.544861 
	C725.484741,638.006042 655.609009,637.475159 584.837158,636.881226 
M417.872620,366.282959 
	C414.122559,371.887451 410.372467,377.491943 406.019165,383.997925 
	C408.812042,383.997925 411.044861,383.997925 413.277679,383.997955 
	C472.929810,383.998077 532.582031,383.968323 592.234009,384.039246 
	C599.036499,384.047333 605.845947,384.503723 612.639038,384.951233 
	C635.839661,386.479462 656.582520,394.761841 675.348938,408.215637 
	C692.575195,420.565247 705.998901,436.318573 715.039368,455.426270 
	C726.623596,479.910522 730.883789,505.624481 726.059937,532.594360 
	C720.735107,562.364624 706.816589,587.171753 683.796753,606.822266 
	C679.743225,610.282532 675.589172,613.624878 671.006348,617.414673 
	C672.442322,617.699219 673.078796,617.935486 673.715393,617.935852 
	C714.038635,617.957825 754.362122,618.012756 794.684265,617.803223 
	C796.596375,617.793274 799.264221,615.851013 800.259521,614.070374 
	C803.417053,608.421753 806.158875,602.512146 808.685242,596.544250 
	C819.361877,571.323242 825.189453,544.905884 825.770142,517.610291 
	C826.065308,503.734741 824.597656,489.732483 822.855286,475.922699 
	C819.851929,452.119751 812.191956,429.605377 801.055359,408.407349 
	C787.713440,383.011780 770.399841,360.720947 748.548523,341.872864 
	C729.070312,325.071716 707.559570,311.773193 683.810974,302.184021 
	C656.043518,290.972015 626.861755,286.271332 597.084106,286.107178 
	C535.267639,285.766418 473.448120,285.999298 411.629852,286.017548 
	C409.911285,286.018036 408.192780,286.258759 405.419373,286.466431 
	C425.930573,310.941040 431.304352,336.898438 417.872620,366.282959 
M493.992310,517.665588 
	C494.086853,520.159058 493.948853,522.686890 494.311768,525.140686 
	C498.012238,550.158875 508.805908,571.403137 527.303772,588.908752 
	C551.323425,611.639954 579.932617,620.791138 612.337708,617.689087 
	C638.228760,615.210449 660.408875,604.122131 678.391785,585.093628 
	C703.551025,558.471375 712.816956,526.933411 706.404297,491.066406 
	C701.646179,464.453308 687.996399,442.821594 666.638245,426.267761 
	C640.798401,406.240417 611.491211,399.885254 579.650330,406.007263 
	C556.994202,410.363342 537.646912,421.191681 522.032959,438.444000 
	C501.884766,460.706329 492.133850,486.634094 493.992310,517.665588 
M817.499451,285.999512 
	C778.035889,285.999512 738.572388,285.999512 698.330566,285.999512 
	C699.304382,287.265991 699.449829,287.615906 699.710083,287.764160 
	C700.575684,288.257172 701.464966,288.717499 702.376160,289.120392 
	C729.924377,301.300964 754.256775,318.374420 775.027344,339.942810 
	C786.814148,352.182343 796.389709,366.545990 807.054932,379.877960 
	C808.316772,381.455322 810.186768,383.714966 811.751038,383.696014 
	C823.853821,383.549561 836.369202,384.731476 847.960449,382.054413 
	C870.498230,376.849121 888.342163,354.886719 883.899475,326.672302 
	C880.949646,307.938965 863.179810,289.647339 844.368652,287.272003 
	C835.828064,286.193542 827.127197,286.384430 817.499451,285.999512 
M324.486420,711.935242 
	C326.582153,714.711670 328.439850,717.713074 330.814545,720.225891 
	C341.539307,731.574890 355.233215,735.903259 370.395447,735.948486 
	C413.182495,736.076111 455.970184,736.000000 498.757599,735.982727 
	C500.136780,735.982178 501.515900,735.748047 504.111633,735.512268 
	C502.454803,734.582703 501.947174,734.246521 501.399719,733.998108 
	C474.983612,722.010254 451.260345,706.001526 430.420532,685.848083 
	C416.766479,672.643738 405.039581,657.819763 394.690887,641.865540 
	C393.435120,639.929565 390.274780,638.344604 387.892761,638.188477 
	C380.598358,637.710449 373.251526,637.906799 365.928009,638.024048 
	C348.893250,638.296753 335.376099,645.729553 325.857941,659.538391 
	C314.384308,676.184204 314.711456,693.702637 324.486420,711.935242 
M396.170258,306.353302 
	C377.555542,280.979828 339.392242,279.772430 319.099274,304.407227 
	C301.362823,325.938538 305.201996,357.148651 327.626770,374.156158 
	C347.242340,389.033142 373.266541,387.291138 391.006073,370.079987 
	C408.390564,353.213257 411.459106,327.557129 396.170258,306.353302 
M888.515503,665.038025 
	C876.388550,640.784485 847.297058,631.229492 822.577881,643.381104 
	C799.168213,654.888977 789.164246,684.200317 800.927856,707.699890 
	C814.397827,734.608093 842.832214,741.282532 864.625854,731.255737 
	C891.219360,719.020630 900.961365,690.953430 888.515503,665.038025 
z"/>
<path fill="#122D42" opacity="1.000000" stroke="none" 
	d="
M575.416687,912.041138 
	C571.383545,906.092712 567.678894,900.384521 563.833740,894.772644 
	C563.169250,893.802917 561.909424,893.241150 560.924561,892.490906 
	C560.297424,893.703491 559.204529,894.887573 559.128174,896.133911 
	C558.874023,900.280579 558.920471,904.450439 558.976868,908.609741 
	C559.020752,911.841370 557.454712,913.016052 554.355347,912.970337 
	C551.470581,912.927734 550.038330,911.774109 550.042969,908.813416 
	C550.066467,893.668701 550.074707,878.523926 550.029785,863.379333 
	C550.020142,860.126160 551.661194,858.982422 554.693359,859.017273 
	C560.351013,859.082336 566.016357,858.869080 571.666870,859.080933 
	C579.553040,859.376587 585.037415,864.444153 586.646973,872.537170 
	C587.997742,879.329102 584.098633,886.610352 577.471680,889.691162 
	C576.177856,890.292725 574.901245,890.931091 573.238770,891.735229 
	C577.755371,898.620483 581.976257,905.054871 586.197083,911.489319 
	C585.999207,911.985474 585.801270,912.481689 585.603394,912.977844 
	C582.301453,912.756592 578.999512,912.535339 575.416687,912.041138 
M559.069092,879.109741 
	C559.625793,880.232666 559.890381,881.793335 560.794067,882.396423 
	C563.508667,884.207947 572.871887,883.001831 574.832214,880.351440 
	C576.076294,878.669373 576.858459,876.153320 576.754456,874.065735 
	C576.514771,869.252625 571.432129,866.900696 563.806396,866.960999 
	C558.136658,867.005798 559.126648,870.847107 559.013428,874.219727 
	C558.968872,875.547302 559.022217,876.878174 559.069092,879.109741 
z"/>
<path fill="#122D42" opacity="1.000000" stroke="none" 
	d="
M434.000977,901.957031 
	C434.004364,889.300903 434.156555,877.135437 433.935486,864.976807 
	C433.851257,860.344055 435.627625,858.632812 440.106476,858.967407 
	C443.088623,859.190186 446.101349,859.000183 449.100372,859.001526 
	C462.141846,859.007202 469.353882,864.072388 471.166931,876.979919 
	C472.243652,884.645569 471.088776,892.826050 469.737213,900.565491 
	C468.721710,906.380371 464.282745,911.071045 458.369934,911.981506 
	C451.224579,913.081665 443.829376,912.672791 436.545380,912.601257 
	C435.720764,912.593140 434.423157,910.634399 434.208557,909.426697 
	C433.805817,907.160583 434.034760,904.782166 434.000977,901.957031 
M443.065857,870.932190 
	C443.049286,880.429077 443.181152,889.929504 442.951416,899.421204 
	C442.842194,903.935913 444.796326,905.260254 448.974152,904.986267 
	C456.726868,904.477844 460.782654,901.681213 462.019257,893.898071 
	C462.859833,888.607178 462.850891,882.937439 461.925262,877.664734 
	C460.388641,868.911255 455.328918,867.093872 447.024109,867.203369 
	C445.719025,867.220581 444.437805,869.051514 443.065857,870.932190 
z"/>
<path fill="#122D42" opacity="1.000000" stroke="none" 
	d="
M721.091675,897.941223 
	C721.035706,897.199829 720.979797,896.458435 720.895325,895.025146 
	C720.608398,893.536255 720.349915,892.739258 720.091431,891.942261 
	C720.075928,888.615662 720.060425,885.289062 720.272461,881.258545 
	C720.611267,879.710083 720.722473,878.865479 720.833740,878.020874 
	C720.893433,877.585144 720.953064,877.149353 721.274292,876.101929 
	C725.935547,859.801025 738.463074,854.468689 752.960815,862.114197 
	C764.253113,873.591736 763.882874,887.356567 759.607483,901.202698 
	C754.773315,916.858643 734.754883,917.625061 726.223083,907.839600 
	C724.213989,904.213013 722.652832,901.077087 721.091675,897.941223 
M752.539307,882.131042 
	C752.290222,880.496216 752.141663,878.838440 751.773560,877.230835 
	C750.573425,871.990173 746.299683,867.910278 741.724915,867.529480 
	C737.265503,867.158264 732.251160,870.132935 731.513672,875.813477 
	C730.558960,883.167358 731.082886,890.809509 731.795410,898.248474 
	C732.240173,902.891602 736.153442,905.287170 740.664368,905.477539 
	C745.210693,905.669373 749.042908,903.329834 750.239380,898.988831 
	C751.665771,893.813965 751.971313,888.330078 752.539307,882.131042 
z"/>
<path fill="#122D42" opacity="1.000000" stroke="none" 
	d="
M403.436584,911.686829 
	C389.560791,917.481506 378.257202,912.852966 374.070160,899.633423 
	C371.111847,890.293518 371.377014,880.952942 374.736786,871.815308 
	C378.164764,862.492188 384.358856,858.713806 394.811035,859.020264 
	C403.078979,859.262695 409.381805,864.263794 412.095581,873.052856 
	C414.860138,882.006531 415.228882,891.201721 411.906189,899.934875 
	C410.282227,904.203186 406.544739,907.667419 403.436584,911.686829 
M391.886810,905.359009 
	C398.549683,904.954224 401.026093,903.013611 403.135101,896.963867 
	C405.456482,890.304749 405.288147,883.598755 403.676086,876.887756 
	C402.407043,871.604614 397.851013,867.588501 393.361359,867.437744 
	C389.122772,867.295471 384.944794,870.348083 383.362671,875.705444 
	C381.010254,883.671082 380.792053,891.876892 384.290283,899.518616 
	C385.398834,901.940186 388.807129,903.309021 391.886810,905.359009 
z"/>
<path fill="#122D42" opacity="1.000000" stroke="none" 
	d="
M840.648804,866.925781 
	C845.947754,858.919434 853.491699,856.796448 862.110718,860.331055 
	C863.299744,860.818604 865.161133,860.492188 866.396667,859.893372 
	C871.007996,857.658447 873.809814,859.149048 873.965698,864.235718 
	C874.047302,866.898132 874.366028,869.646851 873.833557,872.201599 
	C873.479248,873.901672 872.104370,876.198059 870.665100,876.684204 
	C868.145752,877.535095 865.738464,877.114929 864.733398,873.401306 
	C863.233398,867.858826 856.812134,865.842834 851.809265,868.801453 
	C848.349792,870.847351 848.062439,875.426147 851.663513,877.862488 
	C854.366699,879.691345 857.729980,880.511108 860.631531,882.088684 
	C864.098633,883.973755 867.729492,885.793152 870.674133,888.349609 
	C875.370056,892.426758 876.522827,899.108398 874.035522,904.728882 
	C871.459045,910.550598 867.089111,914.114746 860.505981,913.910278 
	C857.257874,913.809265 854.047241,912.807068 850.793457,912.455566 
	C849.119873,912.274841 847.347473,912.429565 845.691345,912.775513 
	C840.946899,913.766785 839.165161,912.500061 839.031799,907.677795 
	C838.958191,905.014954 838.695190,902.289551 839.152100,899.704529 
	C839.438416,898.084595 840.951355,895.396667 841.829651,895.429688 
	C843.738159,895.501526 846.370178,896.512146 847.333984,898.017517 
	C851.422729,904.404053 854.920593,906.793823 860.439758,904.869812 
	C862.551147,904.133667 864.957825,901.761475 865.481812,899.692261 
	C865.953125,897.830872 864.651245,894.466797 863.036072,893.350342 
	C859.689026,891.036743 855.694702,889.559814 851.823975,888.122925 
	C841.361572,884.238953 837.884399,878.006226 840.648804,866.925781 
z"/>
<path fill="#122D42" opacity="1.000000" stroke="none" 
	d="
M694.087219,880.936523 
	C694.036438,880.500549 693.985657,880.064636 693.898193,878.925171 
	C692.232727,870.879944 689.312988,867.638672 684.146606,867.437012 
	C679.212830,867.244446 674.007202,871.283691 673.273560,877.821655 
	C672.537537,884.381470 673.139282,891.201904 674.019409,897.792603 
	C674.575256,901.955200 677.817749,904.612549 682.316345,905.132568 
	C687.083130,905.683655 691.151611,904.221069 692.938599,899.709961 
	C694.930603,894.681213 697.851501,893.212158 702.720886,895.295288 
	C702.720886,895.295288 702.797119,895.248657 702.786987,895.602844 
	C702.510803,906.013672 694.810120,914.047913 685.024475,913.884033 
	C681.019287,913.817017 677.033569,912.586304 673.039001,911.885010 
	C671.575317,910.359192 670.111694,908.833435 668.209229,906.823486 
	C666.211060,902.539917 664.651611,898.740356 663.092163,894.940857 
	C663.076843,889.622192 663.061584,884.303467 663.291504,878.230591 
	C666.141785,872.592651 667.825073,866.793335 671.560608,863.032410 
	C677.676941,856.874268 685.468567,857.958191 692.843811,861.086487 
	C695.489441,860.103210 698.428284,858.900146 700.752930,859.636292 
	C702.034302,860.042053 702.684814,863.665527 702.906311,865.908813 
	C703.248108,869.371765 702.910706,872.896545 702.987671,876.392395 
	C703.055603,879.477356 701.814636,881.114319 698.582947,880.972168 
	C697.086731,880.906311 695.585938,880.945190 694.087219,880.936523 
z"/>
<path fill="#122D42" opacity="1.000000" stroke="none" 
	d="
M354.999939,873.836609 
	C354.799652,880.355896 353.070984,882.380798 348.753387,880.618713 
	C347.037903,879.918762 345.824249,877.018372 345.174957,874.879089 
	C343.833130,870.457886 340.875214,868.084961 336.607635,867.601013 
	C332.436249,867.127930 329.047882,869.195007 327.230072,872.898376 
	C325.789459,875.833252 324.456238,879.099426 324.250244,882.294250 
	C323.965485,886.710754 324.418060,891.266296 325.228790,895.637268 
	C326.120758,900.446472 328.576965,904.353516 334.100220,905.088257 
	C339.815002,905.848450 342.841614,904.233093 345.870331,898.115173 
	C347.412689,894.999634 349.065216,892.741333 352.529327,895.217834 
	C353.663300,896.028503 354.674347,898.261414 354.407745,899.572632 
	C352.968597,906.650574 345.882935,913.225098 339.486847,913.918762 
	C329.208496,915.033508 322.026794,911.795227 318.337280,903.454285 
	C313.312195,892.093811 313.242706,880.403625 318.550232,869.126587 
	C323.441772,858.733459 331.883911,856.544983 344.718903,860.534790 
	C347.417450,860.125366 350.354919,858.918823 352.718353,859.627319 
	C353.987610,860.007812 354.579102,863.631287 354.915894,865.875549 
	C355.282776,868.320496 355.000549,870.862854 354.999939,873.836609 
z"/>
<path fill="#122D42" opacity="1.000000" stroke="none" 
	d="
M503.044128,912.999878 
	C491.136200,912.939026 492.031097,913.901611 492.007141,902.482727 
	C491.980957,889.990601 492.148712,877.495911 491.936279,865.007385 
	C491.858215,860.417358 493.554535,858.803589 498.070862,858.942444 
	C506.058441,859.188110 514.058777,859.037598 522.053650,859.015869 
	C524.855286,859.008301 526.969482,859.537598 526.935913,863.080078 
	C526.901733,866.706848 524.591309,866.981323 521.894287,866.981323 
	C516.730896,866.981384 511.564056,867.125732 506.405304,866.977539 
	C502.660736,866.869995 500.683807,868.207825 501.013397,872.169434 
	C501.082153,872.995972 501.005768,873.834106 501.007080,874.666870 
	C501.018280,881.810730 501.150085,881.942566 508.236664,881.997742 
	C511.234375,882.021057 514.308105,881.666565 517.197021,882.240173 
	C518.606567,882.520142 520.782715,884.698547 520.631531,885.726318 
	C520.405823,887.261414 518.593079,889.497375 517.168762,889.738098 
	C513.601440,890.340820 509.869659,890.099121 506.209930,889.990173 
	C502.736450,889.886719 501.106995,891.117126 500.960907,894.861267 
	C500.571625,904.839172 500.583221,904.988770 510.430603,905.001160 
	C514.427979,905.006165 518.425537,905.049377 522.422729,905.028259 
	C525.106934,905.014038 526.919556,905.761963 526.933228,908.949158 
	C526.946655,912.078430 525.275818,912.979553 522.523987,912.970398 
	C516.194824,912.949219 509.865509,912.986328 503.044128,912.999878 
z"/>
<path fill="#122D42" opacity="1.000000" stroke="none" 
	d="
M782.000854,869.063843 
	C782.025024,859.009888 782.025024,859.005615 791.503052,859.003052 
	C795.502197,859.001953 799.506897,858.891907 803.499329,859.061340 
	C812.578369,859.446777 818.777039,866.103882 818.874451,875.395752 
	C818.970581,884.565735 812.692749,891.422302 803.708557,891.959656 
	C791.063721,892.715942 791.096619,892.716248 790.967712,905.363403 
	C790.946045,907.488647 791.138611,910.073730 790.042053,911.579712 
	C789.223694,912.703491 786.202087,913.153381 784.691956,912.558044 
	C783.409668,912.052429 782.166687,909.634521 782.140442,908.042480 
	C781.928833,895.215027 782.009399,882.382812 782.000854,869.063843 
M807.349670,880.746338 
	C809.610107,877.134033 810.377380,872.322510 806.956482,870.370361 
	C802.991760,868.107788 797.627747,868.248474 792.840515,867.558899 
	C792.407776,867.496582 791.259705,869.003052 791.279175,869.759521 
	C791.392944,874.178833 790.289246,879.749756 792.543701,882.605042 
	C794.080322,884.551331 800.432861,882.753723 804.623413,882.491699 
	C805.367920,882.445129 806.069946,881.719727 807.349670,880.746338 
z"/>
<path fill="#47704C" opacity="1.000000" stroke="none" 
	d="
M694.051270,881.225220 
	C695.585938,880.945190 697.086731,880.906311 698.582947,880.972168 
	C701.814636,881.114319 703.055603,879.477356 702.987671,876.392395 
	C702.910706,872.896545 703.248108,869.371765 702.906311,865.908813 
	C702.684814,863.665527 702.034302,860.042053 700.752930,859.636292 
	C698.428284,858.900146 695.489441,860.103210 692.843811,861.086487 
	C685.468567,857.958191 677.676941,856.874268 671.560608,863.032410 
	C667.825073,866.793335 666.141785,872.592651 663.314941,877.767273 
	C661.408630,864.862732 673.620605,853.178284 686.663208,855.344116 
	C689.366089,855.792908 692.256714,855.912781 694.946655,855.477966 
	C701.482361,854.421509 705.490417,856.542419 706.400085,863.229309 
	C707.177063,868.941467 707.028931,874.850342 706.561707,880.613220 
	C706.437805,882.142334 703.751770,884.432495 702.029236,884.644714 
	C699.174683,884.996399 695.044617,886.592712 694.051270,881.225220 
z"/>
<path fill="#47704C" opacity="1.000000" stroke="none" 
	d="
M702.649658,894.945679 
	C697.851501,893.212158 694.930603,894.681213 692.938599,899.709961 
	C691.151611,904.221069 687.083130,905.683655 682.316345,905.132568 
	C677.817749,904.612549 674.575256,901.955200 674.019409,897.792603 
	C673.139282,891.201904 672.537537,884.381470 673.273560,877.821655 
	C674.007202,871.283691 679.212830,867.244446 684.146606,867.437012 
	C689.312988,867.638672 692.232727,870.879944 693.847107,878.600037 
	C693.085449,878.094360 692.274109,877.256348 691.601318,876.318909 
	C687.444519,870.527283 680.256897,870.839966 678.277344,877.635193 
	C676.575012,883.478638 676.838196,889.996094 676.966980,896.200317 
	C676.999146,897.752502 679.867737,900.514221 681.415222,900.502136 
	C684.625427,900.476990 687.953308,899.257202 690.966187,897.925415 
	C692.236938,897.363647 692.783936,895.241638 693.745911,893.890076 
	C696.926270,889.421631 699.792725,889.662048 702.649658,894.945679 
z"/>
<path fill="#47704C" opacity="1.000000" stroke="none" 
	d="
M673.126465,912.236206 
	C677.033569,912.586304 681.019287,913.817017 685.024475,913.884033 
	C694.810120,914.047913 702.510803,906.013672 702.763550,895.564697 
	C706.750549,897.387024 707.233154,900.517151 705.372070,904.461182 
	C700.172363,915.480286 691.994995,919.980774 679.885803,917.597839 
	C677.428345,917.114136 675.426025,914.317627 673.126465,912.236206 
z"/>
<path fill="#47704C" opacity="1.000000" stroke="none" 
	d="
M752.893066,861.750916 
	C738.463074,854.468689 725.935547,859.801025 721.315002,875.774536 
	C720.062927,868.017395 724.117371,862.516602 730.218567,858.158691 
	C736.149048,853.922607 742.683594,854.114624 749.095825,856.594421 
	C750.714783,857.220520 751.601929,859.738892 752.893066,861.750916 
z"/>
<path fill="#47704C" opacity="1.000000" stroke="none" 
	d="
M662.997192,895.269531 
	C664.651611,898.740356 666.211060,902.539917 667.942688,906.650635 
	C662.820801,904.805420 662.792358,900.233521 662.997192,895.269531 
z"/>
<path fill="#47704C" opacity="1.000000" stroke="none" 
	d="
M720.998535,898.259644 
	C722.652832,901.077087 724.213989,904.213013 725.944458,907.655518 
	C721.610657,906.369873 720.499756,902.894836 720.998535,898.259644 
z"/>
<path fill="#47704C" opacity="1.000000" stroke="none" 
	d="
M720.025574,892.177063 
	C720.349915,892.739258 720.608398,893.536255 720.850098,894.656128 
	C720.542114,894.123352 720.250916,893.267578 720.025574,892.177063 
z"/>
<path fill="#47704C" opacity="1.000000" stroke="none" 
	d="
M720.667175,878.194946 
	C720.722473,878.865479 720.611267,879.710083 720.296143,880.805786 
	C720.228455,880.160950 720.364502,879.264954 720.667175,878.194946 
z"/>
<path fill="#47704C" opacity="1.000000" stroke="none" 
	d="
M585.285156,636.912720 
	C655.609009,637.475159 725.484741,638.006042 796.402161,638.544861 
	C783.969543,652.841797 776.792786,668.222107 776.826355,686.896606 
	C776.859924,705.586914 784.461060,720.853516 796.520508,735.629089 
	C793.700317,735.794556 791.958313,735.985718 790.216370,735.986145 
	C728.221802,736.000671 666.226074,736.219666 604.233032,735.910400 
	C568.911804,735.734253 534.804199,729.054016 502.918060,713.314148 
	C468.431305,696.290588 439.904083,672.093628 417.469391,640.787537 
	C396.640869,611.722778 383.708649,579.388977 378.368042,544.142456 
	C374.761780,520.341858 374.994659,496.444885 379.296783,472.665833 
	C383.352264,450.250031 390.460724,428.893585 401.085449,408.713104 
	C402.584320,405.866211 404.117584,403.946442 407.813354,403.956268 
	C447.642853,404.062012 487.472748,404.018097 527.302551,404.034088 
	C528.268127,404.034485 529.233643,404.253510 531.045105,404.473145 
	C526.156982,408.600800 521.846375,412.280914 517.492981,415.909729 
	C501.005768,429.652863 489.586914,446.939850 481.929016,466.835388 
	C475.559082,483.384827 472.939758,500.584625 474.068451,518.231384 
	C475.793549,545.201843 484.849213,569.521790 502.041840,590.493835 
	C523.055481,616.126953 550.042175,631.507202 582.883240,636.471863 
	C583.540161,636.571228 584.186096,636.743164 585.285156,636.912720 
z"/>
<path fill="#47704C" opacity="1.000000" stroke="none" 
	d="
M418.020020,365.939789 
	C431.304352,336.898438 425.930573,310.941040 405.419373,286.466431 
	C408.192780,286.258759 409.911285,286.018036 411.629852,286.017548 
	C473.448120,285.999298 535.267639,285.766418 597.084106,286.107178 
	C626.861755,286.271332 656.043518,290.972015 683.810974,302.184021 
	C707.559570,311.773193 729.070312,325.071716 748.548523,341.872864 
	C770.399841,360.720947 787.713440,383.011780 801.055359,408.407349 
	C812.191956,429.605377 819.851929,452.119751 822.855286,475.922699 
	C824.597656,489.732483 826.065308,503.734741 825.770142,517.610291 
	C825.189453,544.905884 819.361877,571.323242 808.685242,596.544250 
	C806.158875,602.512146 803.417053,608.421753 800.259521,614.070374 
	C799.264221,615.851013 796.596375,617.793274 794.684265,617.803223 
	C754.362122,618.012756 714.038635,617.957825 673.715393,617.935852 
	C673.078796,617.935486 672.442322,617.699219 671.006348,617.414673 
	C675.589172,613.624878 679.743225,610.282532 683.796753,606.822266 
	C706.816589,587.171753 720.735107,562.364624 726.059937,532.594360 
	C730.883789,505.624481 726.623596,479.910522 715.039368,455.426270 
	C705.998901,436.318573 692.575195,420.565247 675.348938,408.215637 
	C656.582520,394.761841 635.839661,386.479462 612.639038,384.951233 
	C605.845947,384.503723 599.036499,384.047333 592.234009,384.039246 
	C532.582031,383.968323 472.929810,383.998077 413.277679,383.997955 
	C411.044861,383.997925 408.812042,383.997925 406.019165,383.997925 
	C410.372467,377.491943 414.122559,371.887451 418.020020,365.939789 
z"/>
<path fill="#47704C" opacity="1.000000" stroke="none" 
	d="
M493.985107,517.205933 
	C492.133850,486.634094 501.884766,460.706329 522.032959,438.444000 
	C537.646912,421.191681 556.994202,410.363342 579.650330,406.007263 
	C611.491211,399.885254 640.798401,406.240417 666.638245,426.267761 
	C687.996399,442.821594 701.646179,464.453308 706.404297,491.066406 
	C712.816956,526.933411 703.551025,558.471375 678.391785,585.093628 
	C660.408875,604.122131 638.228760,615.210449 612.337708,617.689087 
	C579.932617,620.791138 551.323425,611.639954 527.303772,588.908752 
	C508.805908,571.403137 498.012238,550.158875 494.311768,525.140686 
	C493.948853,522.686890 494.086853,520.159058 493.985107,517.205933 
z"/>
<path fill="#47704C" opacity="1.000000" stroke="none" 
	d="
M817.999268,285.999512 
	C827.127197,286.384430 835.828064,286.193542 844.368652,287.272003 
	C863.179810,289.647339 880.949646,307.938965 883.899475,326.672302 
	C888.342163,354.886719 870.498230,376.849121 847.960449,382.054413 
	C836.369202,384.731476 823.853821,383.549561 811.751038,383.696014 
	C810.186768,383.714966 808.316772,381.455322 807.054932,379.877960 
	C796.389709,366.545990 786.814148,352.182343 775.027344,339.942810 
	C754.256775,318.374420 729.924377,301.300964 702.376160,289.120392 
	C701.464966,288.717499 700.575684,288.257172 699.710083,287.764160 
	C699.449829,287.615906 699.304382,287.265991 698.330566,285.999512 
	C738.572388,285.999512 778.035889,285.999512 817.999268,285.999512 
z"/>
<path fill="#47704C" opacity="1.000000" stroke="none" 
	d="
M324.311584,711.611145 
	C314.711456,693.702637 314.384308,676.184204 325.857941,659.538391 
	C335.376099,645.729553 348.893250,638.296753 365.928009,638.024048 
	C373.251526,637.906799 380.598358,637.710449 387.892761,638.188477 
	C390.274780,638.344604 393.435120,639.929565 394.690887,641.865540 
	C405.039581,657.819763 416.766479,672.643738 430.420532,685.848083 
	C451.260345,706.001526 474.983612,722.010254 501.399719,733.998108 
	C501.947174,734.246521 502.454803,734.582703 504.111633,735.512268 
	C501.515900,735.748047 500.136780,735.982178 498.757599,735.982727 
	C455.970184,736.000000 413.182495,736.076111 370.395447,735.948486 
	C355.233215,735.903259 341.539307,731.574890 330.814545,720.225891 
	C328.439850,717.713074 326.582153,714.711670 324.311584,711.611145 
z"/>
<path fill="#47704C" opacity="1.000000" stroke="none" 
	d="
M396.371704,306.650696 
	C411.459106,327.557129 408.390564,353.213257 391.006073,370.079987 
	C373.266541,387.291138 347.242340,389.033142 327.626770,374.156158 
	C305.201996,357.148651 301.362823,325.938538 319.099274,304.407227 
	C339.392242,279.772430 377.555542,280.979828 396.371704,306.650696 
z"/>
<path fill="#47704C" opacity="1.000000" stroke="none" 
	d="
M888.690979,665.372498 
	C900.961365,690.953430 891.219360,719.020630 864.625854,731.255737 
	C842.832214,741.282532 814.397827,734.608093 800.927856,707.699890 
	C789.164246,684.200317 799.168213,654.888977 822.577881,643.381104 
	C847.297058,631.229492 876.388550,640.784485 888.690979,665.372498 
z"/>
<path fill="#47704C" opacity="1.000000" stroke="none" 
	d="
M559.050049,878.658691 
	C559.022217,876.878174 558.968872,875.547302 559.013428,874.219727 
	C559.126648,870.847107 558.136658,867.005798 563.806396,866.960999 
	C571.432129,866.900696 576.514771,869.252625 576.754456,874.065735 
	C576.858459,876.153320 576.076294,878.669373 574.832214,880.351440 
	C572.871887,883.001831 563.508667,884.207947 560.794067,882.396423 
	C559.890381,881.793335 559.625793,880.232666 559.050049,878.658691 
z"/>
<path fill="#47704C" opacity="1.000000" stroke="none" 
	d="
M443.105713,870.488037 
	C444.437805,869.051514 445.719025,867.220581 447.024109,867.203369 
	C455.328918,867.093872 460.388641,868.911255 461.925262,877.664734 
	C462.850891,882.937439 462.859833,888.607178 462.019257,893.898071 
	C460.782654,901.681213 456.726868,904.477844 448.974152,904.986267 
	C444.796326,905.260254 442.842194,903.935913 442.951416,899.421204 
	C443.181152,889.929504 443.049286,880.429077 443.105713,870.488037 
z"/>
<path fill="#47704C" opacity="1.000000" stroke="none" 
	d="
M752.650879,882.555542 
	C751.971313,888.330078 751.665771,893.813965 750.239380,898.988831 
	C749.042908,903.329834 745.210693,905.669373 740.664368,905.477539 
	C736.153442,905.287170 732.240173,902.891602 731.795410,898.248474 
	C731.082886,890.809509 730.558960,883.167358 731.513672,875.813477 
	C732.251160,870.132935 737.265503,867.158264 741.724915,867.529480 
	C746.299683,867.910278 750.573425,871.990173 751.773560,877.230835 
	C752.141663,878.838440 752.290222,880.496216 752.650879,882.555542 
z"/>
<path fill="#47704C" opacity="1.000000" stroke="none" 
	d="
M391.524902,905.259277 
	C388.807129,903.309021 385.398834,901.940186 384.290283,899.518616 
	C380.792053,891.876892 381.010254,883.671082 383.362671,875.705444 
	C384.944794,870.348083 389.122772,867.295471 393.361359,867.437744 
	C397.851013,867.588501 402.407043,871.604614 403.676086,876.887756 
	C405.288147,883.598755 405.456482,890.304749 403.135101,896.963867 
	C401.026093,903.013611 398.549683,904.954224 391.524902,905.259277 
z"/>
<path fill="#47704C" opacity="1.000000" stroke="none" 
	d="
M807.070679,881.027100 
	C806.069946,881.719727 805.367920,882.445129 804.623413,882.491699 
	C800.432861,882.753723 794.080322,884.551331 792.543701,882.605042 
	C790.289246,879.749756 791.392944,874.178833 791.279175,869.759521 
	C791.259705,869.003052 792.407776,867.496582 792.840515,867.558899 
	C797.627747,868.248474 802.991760,868.107788 806.956482,870.370361 
	C810.377380,872.322510 809.610107,877.134033 807.070679,881.027100 
z"/>
</svg>